<?xml version="1.0"?>
<svg xmlns="http://www.w3.org/2000/svg" version="1.2" baseProfile="tiny" width="800" height="924" viewBox="0 0 800 924" stroke-linecap="round" stroke-linejoin="round">
<g id="cali-proj">
<g>
<path d="M 307.57232 784.5934 309.76926 783.52836 314.12386 783.74561 316.66391 782.01678 318.3405 782.62234 321.68439 782.17848 323.17754 780.89425 323.86383 784.55351 327.31391 786.53816 329.3266 786.19525 329.74614 790.13242 326.1913 790.72559 323.6088 792.83897 319.65675 793.48656 317.77983 794.6617 313.9739 792.38886 309.50831 785.59423 307.57232 784.5934 Z"/>
<path d="M 344.57 778.9825 347.33382 779.02862 351.44298 780.86305 352.91013 782.59204 356.84625 783.22071 358.32927 782.89582 360.42119 779.67136 362.55956 779.29071 365.55664 780.46906 364.16439 783.93686 360.69141 785.48082 354.83214 785.87469 350.12825 788.44111 347.14667 788.48528 340.31471 787.42051 337.84267 786.45103 336.90813 783.69419 337.59636 781.43622 334.37707 778.8925 334.13854 777.05681 339.12508 777.63112 343.11753 779.48342 344.57 778.9825 Z"/>
<path d="M 290.31807 780.32941 292.11641 780.89168 294.13712 779.15096 296.10177 779.44699 298.4201 777.41343 299.64447 779.98627 300.91821 779.74632 303.25192 782.22949 298.7472 783.04252 294.60485 781.36061 290.99243 781.74343 290.31807 780.32941 Z"/>
<path d="M 448.33173 890.66005 447.39187 889.62933 446.08205 885.88394 444.21676 883.58475 443.0647 879.81458 441.51244 877.6368 443.98869 877.31299 446.93336 882.40514 450.54051 886.9098 461.06772 895.896 456.57432 899.71801 454.96307 897.80786 450.7087 894.8762 448.33173 890.66005 Z"/>
<path d="M 449.47286 836.95208 451.30795 837.03911 453.92505 838.88527 455.73458 839.0152 460.2598 840.89146 460.55174 842.70243 465.10422 847.7186 465.56555 850.17906 463.9442 851.29801 459.8786 849.33459 454.56914 849.56218 452.4971 848.87712 450.54581 845.9435 451.33785 843.05507 450.44995 839.82172 443.74297 838.03334 441.83082 835.36276 445.83605 834.63138 449.47286 836.95208 Z"/>
<path d="M 364.76284 854.23039 366.03901 853.77841 371.7284 856.68086 374.0982 859.23406 370.31889 860.48128 364.61931 858.77771 363.05711 857.42524 363.2851 855.12883 364.76284 854.23039 Z"/>
<path d="M 161.66285 4.88156 171.01848 5.11371 182.61571 5.7243 193.74775 6.03738 213.01081 6.81273 230.43116 7.31873 232.64681 7.2148 245.97637 7.54153 252.56366 7.87715 268.72673 7.95145 280.69697 8.15021 306.85381 8.28165 327.68214 8.16941 327.74718 44.60065 327.66044 56.12882 327.6691 116.94161 327.92343 153.16871 327.79829 205.93728 327.52311 228.67526 327.49128 246.50847 327.18892 276.98198 327.54519 298.90742 366.02724 332.79129 375.05399 340.80984 396.4275 359.48712 421.50756 381.65613 425.95939 385.45463 461.99443 417.3025 491.39148 443.08029 504.28713 454.6732 521.0696 469.27454 530.93038 478.10169 541.3487 487.19756 602.07801 540.71913 611.17593 548.79024 662.14972 593.66075 668.86645 599.45994 682.72002 611.75886 720.59087 645.00442 729.0629 652.53103 754.93946 675.21026 755.50855 680.74679 755.27885 686.50627 755.86983 688.35427 759.53241 691.12828 761.02385 695.06555 762.63806 697.63875 765.68364 700.39154 769.40886 702.48643 770.04074 704.56529 773.77792 712.19565 773.44129 714.03514 775.52774 716.06001 777.70723 719.81063 778.05325 721.97095 777.6502 726.79436 778.75269 727.79542 781.21771 727.21062 784.69245 729.39657 785.95637 731.40691 787.7815 731.68633 791.05211 734.92948 795.09475 736.29614 796.86217 739.2435 798.46765 740.56637 799 744.39324 796.52029 745.89475 792.03998 750.82229 791.81788 752.27861 789.93218 753.66615 787.28721 754.14724 784.48671 757.59734 782.61245 757.93314 781.21881 759.55957 777.30927 760.85425 775.95459 762.90225 776.17467 767.70772 774.36929 771.80994 771.37365 775.37116 769.62556 776.07155 768.84938 778.98694 770.72069 780.33366 770.45919 782.79327 771.64755 784.46566 769.61426 786.51978 769.92405 789.71668 771.88022 794.17119 771.64426 797.45927 773.00448 798.84269 773.13566 800.9962 770.42445 803.26972 770.86711 808.324 770.15533 811.41226 771.67128 815.1289 769.00609 817.26448 768.92248 818.73336 766.53863 820.54919 764.2314 824.84364 763.84195 827.62488 761.59212 829.21819 759.16559 828.87841 756.43498 830.89147 758.57204 834.42449 758.54946 836.76814 756.27511 840.25126 756.99966 841.60402 760.85457 843.12612 759.98233 845.59355 761.30485 847.43544 761.29875 853.50618 759.27787 859.97656 760.88848 861.18605 762.62341 865.55654 765.13156 864.70591 766.12762 866.0309 768.38314 866.4499 770.7154 865.22842 774.95346 865.62834 776.16773 866.81673 777.7375 871.29767 779.64178 872.50233 778.68391 874.60256 780.15349 876.66297 780.16757 883.25631 776.95751 886.23094 775.34432 888.77179 775.9282 892.04458 772.89429 892.95079 771.55632 894.4443 768.59845 895.26301 762.78431 894.67707 761.66639 893.97624 760.36081 896.64673 563.87344 922.99892 562.40296 914.04651 560.63171 910.84567 557.52446 908.20693 553.53696 910.2126 552.43516 904.75278 552.76954 902.13748 551.93291 897.29886 550.25055 895.49712 552.50291 890.38469 551.62402 884.89729 549.7396 877.09342 548.64907 874.9638 545.55483 866.6011 542.63928 862.16694 535.61249 852.65926 530.55584 846.44042 527.05742 843.4852 523.08754 841.53787 522.06198 839.65523 518.91734 836.39806 515.69896 834.42223 513.20366 834.61576 512.24608 832.42148 507.37291 826.90421 504.97183 825.92268 502.80747 823.90725 499.80642 822.15238 495.6999 820.9636 494.57496 819.58221 489.64138 816.36232 482.33947 809.19223 478.74922 806.99471 474.83581 806.11522 474.30558 807.46884 474.87735 810.54645 472.76439 810.63154 468.64167 811.98493 463.8875 811.19073 460.34142 808.92586 456.22869 808.49484 454.78432 805.34517 457.49465 802.42934 457.61245 798.87803 453.38789 789.30883 449.92403 783.79797 447.03082 780.95339 443.00021 779.64469 439.74859 780.19905 435.01112 780.02824 431.97093 780.99221 428.84332 780.77048 425.75307 781.83505 424.02911 783.82629 419.99375 780.67779 411.90865 779.41806 405.20014 776.09983 401.07211 774.66643 397.71562 774.52418 392.97169 770.79278 390.72687 770.12299 387.40597 763.63122 386.32224 759.79821 384.63336 757.67688 382.85678 757.61363 378.21973 753.39691 376.60589 753.53243 373.58641 750.1733 370.90274 748.14696 364.79589 746.09999 362.98134 744.37192 358.371 743.65458 353.95825 744.14647 350.97862 746.1645 349.34859 746.12082 344.09345 744.02862 337.73801 744.89373 333.62183 742.45929 331.11771 742.32919 326.97391 739.88887 320.51537 739.90876 316.29999 738.62316 303.41293 739.20702 300.23802 740.00042 289.80397 741.01743 289.39735 738.36794 286.63052 733.7132 281.05043 730.38116 277.74122 730.64561 275.90319 728.01147 276.35859 725.74658 279.47705 717.25702 279.51173 715.54659 276.68383 711.04667 278.93695 702.63117 278.43904 700.29953 276.61596 698.96014 275.98781 696.94461 274.11485 696.64211 276.63977 687.06398 277.47879 681.38534 277.05316 675.33504 275.84849 673.00032 273.94864 672.47312 272.06683 670.6991 269.26442 669.97107 265.14317 670.01624 259.60714 667.16988 256.40809 663.1214 257.02581 660.21984 258.82809 655.44596 259.25968 652.18626 258.73641 648.05308 257.52863 645.42765 255.70983 643.57761 252.64967 643.77626 250.85008 642.44875 248.16427 642.37096 240.48445 633.72899 238.60292 629.40968 235.43724 625.25887 228.80234 623.11093 226.14462 621.37863 223.85526 617.53942 223.81698 613.73012 222.54419 610.74121 218.2169 606.75673 216.28527 603.63573 212.4611 600.63391 210.70505 592.37493 209.4208 589.44477 207.18112 588.04199 203.83956 586.93904 202.47001 583.03888 200.4792 580.79907 199.66276 578.19226 195.78538 573.13349 192.93152 570.23253 188.07481 567.00802 185.43125 566.29436 183.73378 564.65702 182.51694 562.00152 180.74996 560.87517 179.24561 558.05214 179.43015 555.85743 178.48421 554.10467 178.81449 551.81685 177.88942 547.52109 175.90794 541.6776 175.74059 538.15023 177.20968 537.85837 176.76534 534.47083 174.83666 533.98929 173.85174 532.19299 177.58684 527.23477 180.16582 529.74565 181.62325 530.23139 183.94144 527.79849 185.3343 525.18693 186.84206 519.68076 187.01929 516.1772 188.46973 510.98002 185.54636 503.59954 182.95641 498.47536 179.59615 494.77334 177.78211 493.84233 174.41896 496.10581 171.3654 495.03073 170.1885 496.30817 167.13491 496.52202 164.07996 495.70817 160.32248 493.20326 156.43089 489.8961 152.96697 485.39153 150.53048 481.22112 148.91782 479.75918 146.52376 479.60337 146.50914 477.79925 144.33283 474.15971 141.44853 471.85352 140.54367 466.70405 141.10972 465.03433 142.17711 455.9828 140.52717 452.70159 139.06101 448.44449 138.52497 444.0945 137.01041 442.1106 135.33992 442.86395 133.64937 439.99973 133.7896 433.26586 135.0291 432.42366 135.70449 428.12475 135.60525 423.99985 134.48746 414.79227 138.44011 412.57981 142.78203 412.03152 144.43009 414.08746 145.39754 421.22399 143.62217 422.15557 144.96472 426.59611 143.99862 428.95812 145.55715 430.11083 144.49964 432.08872 145.87861 433.39599 149.15 433.63586 150.02069 435.1525 153.34104 435.48713 160.44654 442.33463 164.85571 442.10014 164.8513 440.03213 162.28403 434.18408 161.94588 429.08601 161.22555 426.42892 158.14545 423.45722 154.90628 421.03213 153.67766 416.84787 148.6009 414.8616 148.43864 412.33297 150.77257 410.41745 150.45612 404.31692 149.43337 403.01923 144.42591 402.48091 142.61148 399.79404 143.72221 397.99957 146.24673 395.9087 146.21871 393.01263 148.41334 393.48079 151.43707 392.85498 154.42154 389.64981 153.7145 386.73759 150.63225 382.68583 146.74266 380.04437 143.91405 379.08225 143.40338 380.46922 141.07917 382.28694 137.10383 383.04253 137.58685 386.58702 136.3766 391.64606 139.01654 393.27426 136.81333 396.9712 138.03471 403.04867 140.59016 405.21496 137.1086 406.779 137.53735 409.84748 135.2922 410.79814 131.98255 409.33896 131.06422 407.79738 123.91707 402.4771 121.95588 402.23405 120.35181 403.4165 118.49152 402.31244 117.81492 400.23162 114.33581 397.6498 113.32346 395.15762 111.54515 393.15252 106.97967 390.24 102.59167 389.4599 100.05639 390.51468 99.24165 392.04232 97.00785 392.0529 101.21678 381.53523 102.24402 377.57087 100.93654 372.82666 99.21054 369.78147 101.0246 368.89592 100.45127 366.44467 98.47817 363.55165 95.88991 361.85834 93.95375 362.90431 93.17829 360.8958 93.78471 357.28919 92.56304 354.26803 89.46108 348.34206 84.01606 343.89137 80.45816 342.14312 77.71614 339.21099 74.40232 336.63293 73.16392 333.54897 70.99636 331.02633 66.52845 323.3003 65.1097 321.57034 61.14434 318.99639 59.2204 315.54055 55.94232 312.87956 54.58195 310.89179 51.48222 308.56474 50.6408 305.9009 46.96076 301.79934 45.85589 301.3467 45.72699 297.52648 48.33697 292.98668 48.75854 287.85265 46.93975 281.17212 45.52965 277.26968 43.24255 272.58909 42.4742 267.47797 41.33001 266.02751 41.13735 261.5858 39.99285 257.22779 41.16942 249.70743 45.19765 239.53636 43.82875 234.4503 44.27586 232.82175 43.74498 226.71078 42.6854 224.08281 41.13822 222.81911 40.61462 219.94563 40.6568 215.74475 39.91015 212.17532 35.85709 208.99674 34.37448 204.3984 32.56851 203.09088 30.86185 199.12251 26.90833 194.01075 23.69472 192.27342 23.79236 188.74524 21.73034 184.99556 16.09452 182.14548 14.2167 179.11081 11.08543 176.69835 6.62947 172.38049 3.62762 168.90292 5.02087 163.75089 3.4621 156.06918 2.2 154.63789 1 151.56611 3.05664 146.63239 2.97046 145.15749 7.72493 134.5426 10.97668 128.54916 14.22153 123.29918 21.46163 109.93112 23.23565 105.18436 24.89418 99.0854 25.49719 95.33219 24.60762 93.31874 22.56098 92.73911 22.24535 88.30973 22.58034 84.05006 23.66786 83.93606 26.72324 75.81527 29.86743 61.85545 30.80973 55.61098 30.71954 52.62873 29.76875 48.61051 29.88024 45.06892 28.5751 42.93217 28.72643 39.70568 26.4384 34.28626 26.08142 29.22587 23.77074 25.58457 22.73711 26.47805 18.21905 21.72129 19.05605 20.85768 21.13691 15.6975 22.12591 11.68924 22.71779 6.59501 22.37037 1.00108 37.60237 1.88643 57.38534 2.61064 62.53368 2.99286 64.90172 2.62805 78.65806 2.96601 84.96787 3.43771 96.23419 3.21219 99.60845 2.95653 106.88554 3.79553 117.84726 4.18241 136.63847 4.5126 155.24183 4.55324 161.66285 4.88156 Z"/>
</g>
</g>
</svg>