<?xml version="1.0"?>
<svg xmlns="http://www.w3.org/2000/svg" version="1.2" baseProfile="tiny" width="800" height="1048" viewBox="0 0 800 1048" stroke-linecap="round" stroke-linejoin="round">
<g id="nhvt-proj">
<path d="M 284.02984 1037.57661 180.58618 1033.51585 42.74256 1028.84819 38.66798 1006.41613 39.87995 999.12842 42.40116 993.83579 44.03432 951.00505 45.76281 912.73707 47.21804 888.59281 49.71389 835.06298 50.47144 823.30921 54.25651 716.5591 55.68119 712.90788 53.82755 705.30605 50.95954 700.83595 43.36354 695.02672 40.85077 695.30478 41.32211 685.68072 38.54273 676.91393 34.04996 675.67168 22.11024 676.46862 16.98514 681.41103 14.76251 687.72531 14.94872 694.7731 10.36762 699.18267 1.55785 692.70344 4.73414 676.97974 1.99466 672.50052 7.91921 658.53829 9.76083 649.07509 19.03631 636.2632 19.37341 628.67585 25.03973 617.64988 23.08045 612.02252 17.67831 606.82392 13.02702 597.38606 14.33522 593.30991 19.06776 588.17821 16.44584 582.5816 18.6384 576.62339 16.00511 569.86855 12.47137 564.98488 8.9237 552.96966 9.58584 539.19929 7.96776 534.10735 10.02466 521.50588 8.70645 515.29685 1 507.97278 3.6102 494.21473 8.93025 480.94177 7.73786 472.85817 11.65309 467.68017 15.17764 450.40138 23.55346 442.68768 27.13518 433.98507 34.75842 428.63675 38.49637 416.51519 34.84214 402.13998 35.00466 392.59693 32.04105 383.33635 32.40888 377.16459 37.80316 370.71721 43.40868 354.81327 44.14985 349.92365 42.34051 344.23498 42.4921 335.44416 40.63004 325.93583 36.63489 320.56753 30.46292 305.16618 26.52128 302.7163 21.55794 295.63588 19.48329 290.05887 20.9578 285.95434 17.32422 278.85707 18.27613 271.18957 22.43521 258.26233 24.61521 245.63882 24.79153 229.014 28.04436 223.63425 30.19763 216.5667 34.23184 210.28816 33.64435 203.93301 25.11897 195.08765 20.7314 187.59836 21.22133 182.78814 24.31535 178.95694 28.14399 163.84409 32.48633 159.82582 33.27212 156.03474 33.37342 139.29434 28.94465 130.64521 32.3128 121.2673 105.36632 120.04708 138.85741 120.82458 173.62734 119.97306 222.15237 120.60992 246.26113 121.53975 255.90745 123.52521 277.17655 123.30325 314.80063 124.56401 325.74148 125.26345 368.22489 124.17762 384.54457 124.33862 428.80983 122.97253 437.95551 123.13588 479.8558 121.33375 501.3156 121.13674 555.10471 119.75607 565.87685 119.51258 559.40509 124.68485 553.63056 121.85707 545.39927 127.56461 545.21781 131.52607 551.86123 141.68893 551.91565 154.28234 558.04695 160.77741 546.67208 177.4376 543.46768 178.90385 540.44333 185.88291 541.8014 190.28876 535.38178 200.06529 536.44587 207.56143 523.43335 223.31466 521.41937 228.10738 528.57508 245.32702 530.52063 252.11822 533.76462 255.68026 532.81397 261.8456 538.25143 264.15571 539.90751 270.94147 542.92304 274.50612 541.58889 278.77358 542.58835 288.19461 547.53176 290.1443 541.253 299.38237 532.20624 299.43613 529.97736 303.58131 537.24885 311.15401 533.36802 319.8722 534.29001 324.44995 529.89116 331.21604 520.35348 332.34711 516.63668 335.89227 512.21012 349.9027 507.04244 352.45202 505.38747 356.73907 499.06461 361.3806 491.07021 362.224 489.2663 365.3247 482.74454 363.69277 475.38728 366.29303 468.64594 373.6947 469.27459 383.08803 457.79611 390.23559 452.84257 391.84136 443.49549 387.68923 439.15951 388.10675 435.82999 391.71964 420.8855 391.8499 418.83997 394.96092 412.63085 398.13108 405.97813 398.80542 404.90981 407.83938 398.65209 412.51944 396.12642 418.64893 401.91831 431.6331 400.42724 440.30279 396.7607 451.18206 400.5949 459.92432 404.35074 464.77342 403.84425 472.22242 406.24429 474.46232 400.89517 479.15991 400.92197 486.69362 403.65534 488.06171 406.35343 495.58161 402.17554 499.48902 398.04927 506.53022 393.83112 509.36774 394.39632 513.36228 385.82988 522.19987 386.28997 526.13458 382.48529 529.5009 384.01451 533.31486 383.19185 539.51493 388.55532 540.02855 386.20078 547.08998 382.32682 548.59388 381.46315 559.76498 372.71774 566.71562 370.45541 572.09021 366.31146 575.56978 368.09477 579.77751 363.61731 581.32359 362.19461 585.01859 363.88356 593.86407 362.05787 599.03095 363.16208 605.6194 357.61533 613.09227 357.43638 619.03604 354.03981 620.95337 349.35707 628.26902 338.20939 633.97065 329.04141 646.5822 328.23193 661.08022 325.84409 665.24305 325.50082 671.25086 321.97278 673.01723 319.85355 681.93753 320.55307 688.00762 315.45753 692.67986 308.71188 696.0191 305.91108 702.81779 306.62215 711.4618 302.60019 716.86763 301.34144 722.46385 306.50055 730.48581 306.26652 735.81557 303.09549 741.83432 303.7037 747.38326 302.22504 752.46655 299.86866 771.14033 296.32307 777.31516 297.08828 782.83878 303.65115 785.9386 297.98482 795.28311 302.34548 802.76175 298.74011 814.82498 294.72894 822.6208 290.74086 824.61079 289.65787 830.31736 291.19848 834.64787 289.20767 840.40918 290.02666 846.93793 286.35089 851.05251 288.26643 855.16302 285.68893 859.21223 285.98671 866.00694 284.42444 869.45169 291.44332 880.22421 288.49303 887.76311 290.80288 893.45741 287.86982 899.57649 281.36948 907.07246 283.45914 911.86937 282.65741 916.73284 284.40845 921.23698 288.05226 923.92637 283.55527 928.12944 283.06601 935.00927 279.48207 939.36136 266.37356 942.91711 261.62904 948.23371 263.95946 952.23754 264.6575 960.81012 262.52836 969.04165 256.23779 974.23877 254.93016 987.03584 257.48884 991.44294 259.18038 1004.87859 266.3785 1012.02374 269.17738 1016.32308 267.92418 1022.77084 274.407 1019.30891 278.88609 1025.22159 279.73321 1029.9424 284.02984 1037.57661 Z"/>
<path d="M 555.10471 119.75607 558.18353 108.33275 556.24842 103.15577 556.82253 97.37728 560.91924 91.55261 563.57882 91.26121 569.74934 83.03646 570.7365 79.47853 575.99658 72.8742 572.96479 67.83973 575.87259 63.42289 576.40998 58.35958 581.61131 45.35678 583.79731 43.15703 582.18837 38.45138 578.69689 37.43524 577.2647 31.55532 580.99757 27.97908 587.76788 30.53648 589.54516 26.50081 595.09233 21.50717 593.2349 17.82424 600.78208 15.05624 602.05929 12.27086 608.44066 9.26379 610.61846 5.49373 615.30583 3.07017 620.35991 7.48429 621.49405 13.01008 626.50571 16.35213 631.56234 23.96097 638.60816 22 645.60999 27.06239 650.0008 23.40519 654.20616 26.50979 658.20305 25.73891 662.06182 18.40965 664.50149 9.43295 668.04737 2.42454 671.82101 1.00078 674.33035 24.35953 681.12384 121.24424 686.35098 185.23777 689.0256 221.03761 691.59741 261.13562 693.55399 300.10328 695.84968 333.896 699.82512 402.72039 705.41961 507.12641 709.35695 587.95749 709.94887 606.70275 711.44602 622.48883 712.68503 643.31563 715.05575 673.68341 716.32848 695.63127 722.83995 703.21702 719.316 709.60615 722.14603 716.14625 720.79283 723.96463 717.86275 729.28875 720.66673 737.09552 718.90502 743.59389 720.67173 748.42529 713.3609 758.20025 714.36125 773.46509 716.74071 776.97075 719.59417 786.33408 722.78782 789.9164 728.44173 788.73869 734.6166 795.47037 739.17466 804.00559 737.45552 806.11539 743.65045 810.32423 745.13408 814.42336 750.59555 817.27215 751.71643 820.3629 756.51081 821.47898 757.95434 826.01507 764.08555 827.90425 766.59197 833.20399 764.55485 837.23559 762.94403 853.30632 760.14736 864.46297 762.35738 872.35399 775.15632 882.60267 779.87507 885.42277 783.39152 890.80035 788.87452 893.29071 797.37216 892.50899 799 898.65224 796.14481 900.14324 796.287 905.72269 792.03669 911.61613 790.10052 917.82727 787.69267 919.55062 786.01464 926.13346 782.67544 928.2099 780.44953 937.17771 773.49845 947.15013 772.42953 954.77173 768.85688 960.46996 767.18731 974.36814 758.05278 979.09797 746.84079 970.63119 741.91518 969.15435 733.67892 970.08721 723.28398 976.53016 704.30343 980.83583 700.48764 985.02937 694.94597 1002.15419 674.71772 996.44042 665.04525 1001.68422 659.11566 1008.98958 660.71564 1030.23989 648.23875 1026.78611 641.89104 1028.52406 635.37975 1035.31063 627.78369 1046.99922 610.75118 1046.77035 494.41376 1044.42245 424.85729 1042.54058 382.60535 1041.02509 334.9579 1039.59125 284.02984 1037.57661 279.73321 1029.9424 278.88609 1025.22159 274.407 1019.30891 267.92418 1022.77084 269.17738 1016.32308 266.3785 1012.02374 259.18038 1004.87859 257.48884 991.44294 254.93016 987.03584 256.23779 974.23877 262.52836 969.04165 264.6575 960.81012 263.95946 952.23754 261.62904 948.23371 266.37356 942.91711 279.48207 939.36136 283.06601 935.00927 283.55527 928.12944 288.05226 923.92637 284.40845 921.23698 282.65741 916.73284 283.45914 911.86937 281.36948 907.07246 287.86982 899.57649 290.80288 893.45741 288.49303 887.76311 291.44332 880.22421 284.42444 869.45169 285.98671 866.00694 285.68893 859.21223 288.26643 855.16302 286.35089 851.05251 290.02666 846.93793 289.20767 840.40918 291.19848 834.64787 289.65787 830.31736 290.74086 824.61079 294.72894 822.6208 298.74011 814.82498 302.34548 802.76175 297.98482 795.28311 303.65115 785.9386 297.08828 782.83878 296.32307 777.31516 299.86866 771.14033 302.22504 752.46655 303.7037 747.38326 303.09549 741.83432 306.26652 735.81557 306.50055 730.48581 301.34144 722.46385 302.60019 716.86763 306.62215 711.4618 305.91108 702.81779 308.71188 696.0191 315.45753 692.67986 320.55307 688.00762 319.85355 681.93753 321.97278 673.01723 325.50082 671.25086 325.84409 665.24305 328.23193 661.08022 329.04141 646.5822 338.20939 633.97065 349.35707 628.26902 354.03981 620.95337 357.43638 619.03604 357.61533 613.09227 363.16208 605.6194 362.05787 599.03095 363.88356 593.86407 362.19461 585.01859 363.61731 581.32359 368.09477 579.77751 366.31146 575.56978 370.45541 572.09021 372.71774 566.71562 381.46315 559.76498 382.32682 548.59388 386.20078 547.08998 388.55532 540.02855 383.19185 539.51493 384.01451 533.31486 382.48529 529.5009 386.28997 526.13458 385.82988 522.19987 394.39632 513.36228 393.83112 509.36774 398.04927 506.53022 402.17554 499.48902 406.35343 495.58161 403.65534 488.06171 400.92197 486.69362 400.89517 479.15991 406.24429 474.46232 403.84425 472.22242 404.35074 464.77342 400.5949 459.92432 396.7607 451.18206 400.42724 440.30279 401.91831 431.6331 396.12642 418.64893 398.65209 412.51944 404.90981 407.83938 405.97813 398.80542 412.63085 398.13108 418.83997 394.96092 420.8855 391.8499 435.82999 391.71964 439.15951 388.10675 443.49549 387.68923 452.84257 391.84136 457.79611 390.23559 469.27459 383.08803 468.64594 373.6947 475.38728 366.29303 482.74454 363.69277 489.2663 365.3247 491.07021 362.224 499.06461 361.3806 505.38747 356.73907 507.04244 352.45202 512.21012 349.9027 516.63668 335.89227 520.35348 332.34711 529.89116 331.21604 534.29001 324.44995 533.36802 319.8722 537.24885 311.15401 529.97736 303.58131 532.20624 299.43613 541.253 299.38237 547.53176 290.1443 542.58835 288.19461 541.58889 278.77358 542.92304 274.50612 539.90751 270.94147 538.25143 264.15571 532.81397 261.8456 533.76462 255.68026 530.52063 252.11822 528.57508 245.32702 521.41937 228.10738 523.43335 223.31466 536.44587 207.56143 535.38178 200.06529 541.8014 190.28876 540.44333 185.88291 543.46768 178.90385 546.67208 177.4376 558.04695 160.77741 551.91565 154.28234 551.86123 141.68893 545.21781 131.52607 545.39927 127.56461 553.63056 121.85707 559.40509 124.68485 565.87685 119.51258 555.10471 119.75607 Z"/>
</g>
</svg>