<?xml version="1.0"?>
<svg xmlns="http://www.w3.org/2000/svg" version="1.2" baseProfile="tiny" width="800" height="350" viewBox="0 0 800 350" stroke-linecap="round" stroke-linejoin="round">
<g id="va-proj">
<g>
<path d="M 799 163.31623 794.2527 171.63511 789.7906 182.04563 787.48792 183.77565 784.97581 182.05612 782.30643 182.12194 780.14075 183.61883 777.0347 187.48272 774.62631 191.50696 768.96596 205.48074 768.6289 208.22095 766.57887 214.81264 766.54533 217.22706 768.33932 219.04117 764.868 224.83844 762.01907 230.90039 762.51725 232.91111 761.61525 235.93259 757.34833 242.85585 756.10384 247.38664 753.45006 251.03884 750.36786 252.26929 751.184 254.6222 750.49408 257.55241 751.41998 260.68931 750.61847 264.02099 747.94086 267.29998 740.95996 274.27671 739.08922 272.04333 734.89819 273.98593 733.99764 269.41868 730.4663 263.84643 730.58943 260.72742 729.03328 257.71749 729.78953 248.8335 732.19066 244.39352 732.41499 236.59494 734.22289 232.55217 733.92729 230.87367 735.85822 224.5267 735.64341 221.05896 738.35174 213.96427 742.01206 208.4089 742.71732 204.23609 744.70134 202.98446 745.77767 199.53337 747.72653 196.98504 746.17052 193.57375 748.43358 191.96295 753.14973 191.51534 755.54323 189.03645 756.14352 186.51611 757.88487 184.76702 757.97668 181.84934 755.8386 180.24034 751.31217 180.03406 755.43774 176.04337 757.16542 176.65198 761.27364 172.15487 763.377 168.80673 799 163.31623 Z"/>
<path d="M 628.14088 84.66722 628.17615 87.39817 622.33805 90.12905 619.93746 92.92271 619.69428 95.77948 616.14625 98.9102 613.64761 99.80415 612.25778 97.39188 609.99595 97.31685 609.54058 103.06455 606.33151 110.90937 603.92157 114.68367 602.64027 120.06741 604.15561 126.11008 603.58242 127.79738 605.59971 129.38592 607.22007 132.95193 610.93491 133.79366 618.11417 131.90525 620.33112 129.24511 625.31279 129.07116 629.06253 125.14178 632.10109 128.14782 631.7294 132.06032 630.54128 135.6641 633.73087 139.56611 637.11848 142.03451 637.24127 147.06835 642.10988 148.95258 645.51832 151.80979 648.95981 152.74832 653.64971 151.93216 656.29689 152.16499 660.00274 155.49244 663.38094 153.14973 665.26203 154.14447 670.04746 153.88353 671.40679 158.41445 677.64651 163.03331 679.62489 168.07333 684.09873 169.47449 684.79437 171.23012 689.25455 174.85311 696.12766 176.9353 703.57901 180.9499 706.41894 183.48797 705.27867 190.19283 703.96266 192.10077 700.09073 192.8354 699.96104 203.77018 701.05972 207.45491 699.01292 208.95306 698.4093 212.67603 702.21935 213.69906 700.70992 215.43892 695.74887 216.97785 685.16128 210.74996 683.54145 210.75196 681.69198 213.64824 679.12816 211.20674 678.6435 206.36907 676.63294 203.65439 674.23903 198.85277 667.82692 195.80439 665.01482 192.39684 663.01369 192.81131 661.03271 191.20789 658.50847 186.62939 655.04958 187.47946 660.02551 195.75395 661.83944 197.21822 664.26059 197.22601 665.56649 200.64139 670.99692 201.81651 673.21555 205.01657 675.65951 213.31203 678.72893 216.76869 680.20855 217.37948 688.84558 216.91994 691.29508 220.51978 701.8072 222.54727 696.28918 227.78459 699.31316 230.57028 701.42793 230.19236 703.1324 228.15772 705.4487 231.96774 706.78373 235.97073 707.70915 243.11759 704.46537 251.27756 701.96125 250.14573 699.08768 246.12863 694.31071 243.79072 691.37436 243.88886 688.88015 246.18166 692.6952 250.03838 695.27963 255.604 697.11837 257.33714 691.94733 258.25683 690.85604 259.55712 684.79511 260.2127 683.876 262.09732 686.96118 264.11587 694.28316 262.78767 694.86847 266.5274 694.01717 270.50364 695.76854 270.98649 699.34289 269.61818 700.65126 272.48149 704.32996 274.14974 706.50356 279.07201 703.7111 289.0493 700.1971 287.5227 695.03637 291.60603 693.64987 293.96905 691.99624 293.18074 689.67612 289.90567 688.3881 286.45746 679.60068 281.00296 673.44218 276.03144 672.97867 273.33772 674.59826 271.16228 672.01894 265.69512 670.0719 264.07156 666.34175 263.95402 662.41506 265.14794 659.95212 267.85297 657.73261 265.81884 656.25008 268.22982 661.05746 272.70308 664.13311 272.90937 666.76483 266.79365 668.92535 269.69424 668.25057 271.51281 669.81074 277.27291 668.92239 283.80754 671.11224 285.9771 676.79345 286.68918 679.1259 289.57837 682.81927 291.83157 686.48511 295.45008 687.10036 302.09832 689.87647 303.45202 690.49436 301.15748 696.20284 301.40329 696.27007 298.58547 701.71134 298.97055 701.68734 294.10052 704.47531 292.97072 707.3134 293.29954 710.5315 295.49114 714.86839 296.96439 719.69759 297.78797 723.94893 299.32294 727.46629 298.2266 729.74893 296.35911 733.33089 297.40008 738.50386 316.32039 741.47018 324.41666 744.69179 331.57532 747.34593 340.97785 704.70135 342.57665 657.48896 344.073 647.08016 344.19371 647.09312 345.1767 619.44593 345.81589 567.36806 346.84466 530.68227 347.66227 519.95581 347.74747 494.66115 348.45211 479.99146 348.48481 423.89729 348.91834 398.93942 348.99833 362.91406 348.67138 340.44264 348.57141 323.89021 348.28685 284.74188 345.68446 272.03683 345.88976 227.1441 343.23652 220.70841 343.14994 206.74694 342.16107 199.12707 341.21915 191.80908 340.91925 194.80237 338.16235 186.20121 337.90349 168.47157 337.00089 167.30439 339.58344 144.38832 338.90294 140.90338 338.66296 116.42833 338.0641 114.46294 337.84143 96.05032 337.47899 76.16611 336.80005 40.53106 335.36996 39.09998 334.80054 29.67899 334.50539 6.02606 333.40075 1 332.84765 6.98986 329.17406 10.58126 328.40618 15.03391 325.84429 18.68567 325.39675 25.36996 326.00425 29.05377 323.87773 36.71005 321.24966 47.57176 318.3516 53.13689 318.14461 53.7636 313.60626 57.07817 309.8384 56.83215 308.0702 59.41916 306.76862 59.72936 305.15275 69.48435 305.15677 78.25955 301.75156 78.5333 299.51901 80.26673 297.52907 80.75781 294.31174 79.6076 291.69038 84.15435 288.2973 88.02313 287.94689 93.91786 282.24928 94.18949 274.86703 101.00059 271.33144 102.73133 271.11046 106.73609 267.84997 115.77702 262.89797 120.54826 261.0484 129.93503 258.59107 133.34166 255.39326 151.88165 240.21442 167.02368 227.50505 169.49634 230.93356 164.16011 234.68378 164.99443 237.29858 168.52077 238.48438 170.02224 242.1428 169.51051 246.22513 170.2278 248.6294 174.87432 252.52794 177.06694 255.22861 177.09611 257.47028 180.28331 258.53545 181.85057 257.80212 185.75222 259.11025 187.8425 263.60861 192.68194 266.71241 193.45574 268.1109 204.615 267.75179 206.18625 266.1125 209.59508 264.78564 210.17665 262.42143 212.35598 262.64156 215.42245 260.39657 218.42363 260.14598 220.23012 255.73956 222.52974 254.83903 223.73924 252.59861 227.62865 257.23176 236.47997 265.0547 242.04258 261.83114 247.23067 260.06894 259.87156 257.45662 262.8601 258.26473 267.37856 256.06317 272.26914 252.34719 269.13701 247.90477 271.69446 242.82292 273.63219 243.1714 278.52252 246.77526 279.82018 249.43196 285.99111 246.87221 295.99221 240.87578 300.58064 237.6772 304.07236 237.12226 306.13875 239.61631 305.93167 242.30674 307.73731 243.76512 312.49022 240.61701 324.44322 233.79555 323.29271 229.27771 321.79154 227.11828 328.38679 223.47259 331.99404 219.67045 327.63155 217.45777 324.97505 212.01249 329.1664 207.53105 328.68478 204.4095 331.24182 201.7919 332.38524 198.06363 335.44052 194.76754 337.74483 190.3463 339.6539 189.47005 346.03227 182.43545 352.82353 176.47397 356.86699 168.07386 357.38976 166.09373 360.03122 162.92993 358.31137 160.02087 359.79619 159.056 362.6883 152.7439 367.57152 147.18839 369.95263 146.21464 373.09014 143.25428 370.99354 139.47917 374.46229 135.86983 375.2777 133.38066 377.17408 133.68817 380.68782 126.36371 382.27318 124.50196 381.41433 119.31048 383.15867 115.10271 384.20081 110.48604 386.08916 105.50252 396.52589 110.33344 397.95901 112.35226 402.13533 121.45786 417.46542 126.82506 420.5021 125.35831 422.84591 121.57958 426.9187 117.17894 427.34762 113.42464 431.27062 106.45358 432.01213 103.11362 434.37213 97.9047 437.79053 97.35599 438.57547 94.14664 437.78679 92.27416 439.6384 86.8989 443.81683 81.58257 444.51531 78.51545 446.86452 74.68045 458.49641 84.95299 462.90229 76.84807 465.92536 70.3961 468.59268 68.54565 470.43444 65.35357 472.56389 68.00212 475.85028 65.54119 478.93957 60.42754 481.34204 58.68743 483.10207 60.80788 487.77446 54.41211 485.77566 52.7781 490.83738 46.81058 494.31672 43.44256 496.02601 43.00686 498.98045 38.29663 501.13793 36.52243 497.87049 32.92647 501.39087 27.41228 499.56207 25.84859 504.94783 18.62226 506.69567 14.35758 504.25836 13.69913 506.39167 10.16661 504.87224 7.36713 506.01194 5.56123 505.92129 1.00167 513.75092 7.04036 523.49199 15.32989 535.18023 24.53467 554.32612 39.89707 556.36396 34.88389 557.34362 30.60122 559.33344 27.3985 561.42703 20.44266 563.97038 17.29073 567.9395 16.84894 573.50725 19.28767 578.04338 18.79016 580.29372 23.39759 585.54202 25.58357 588.28623 28.20402 585.7794 32.9341 584.01828 33.40174 582.06813 37.69789 583.24251 40.95658 585.99221 42.00034 588.21936 45.87795 596.34749 47.47078 599.55777 47.1951 603.96409 49.04893 608.52303 52.07471 608.14084 56.14657 610.80126 57.81553 617.75225 58.48464 621.90686 64.47155 625.2921 66.01045 628.74291 71.70378 628.10549 73.89459 628.14088 84.66722 Z"/>
</g>
</g>
</svg>