<svg xmlns="http://www.w3.org/2000/svg" width="800" height="824" version="1.2" baseProfile="tiny" viewBox="0 00 400 924" stroke-linecap="round" stroke-linejoin="round" fill="none" stroke="black" stroke-width="8">
  <path class="path" d="M307.57232 784.5934l2.19694-1.06504 4.3546.21725 2.54005-1.72883 1.67659.60556 3.34389-.44386 1.49315-1.28423.68629 3.65926 3.45008 1.98465 2.01269-.34291.41954 3.93717-3.55484.59317-2.5825 2.11338-3.95205.64759-1.87692 1.17514-3.80593-2.27284-4.46559-6.79463-1.93599-1.00083zm36.99768-5.6109l2.76382.04612 4.10916 1.83443 1.46715 1.72899 3.93612.62867 1.48302-.32489 2.09192-3.22446 2.13837-.38065 2.99708 1.17835-1.39225 3.4678-3.47298 1.54396-5.85927.39387-4.70389 2.56642-2.98158.04417-6.83196-1.06477-2.47204-.96948-.93454-2.75684.68823-2.25797-3.21929-2.54372-.23853-1.83569 4.98654.57431 3.99245 1.8523 1.45247-.50092zm-54.25193 1.34691l1.79834.56227 2.02071-1.74072 1.96465.29603 2.31833-2.03356 1.22437 2.57284 1.27374-.23995 2.33371 2.48317-4.50472.81303-4.14235-1.68191-3.61242.38282-.67436-1.41402zm158.01366 110.33064l-.93986-1.03072-1.30982-3.74539-1.86529-2.29919-1.15206-3.77017-1.55226-2.17778 2.47625-.32381 2.94467 5.09215 3.60715 4.50466 10.52721 8.9862-4.4934 3.82201-1.61125-1.91015-4.25437-2.93166-2.37697-4.21615zm1.14113-53.70797l1.83509.08703 2.6171 1.84616 1.80953.12993 4.52522 1.87626.29194 1.81097 4.55248 5.01617.46133 2.46046-1.62135 1.11895-4.0656-1.96342-5.30946.22759-2.07204-.68506-1.95129-2.93362.79204-2.88843-.8879-3.23335-6.70698-1.78838-1.91215-2.67058 4.00523-.73138 3.63681 2.3207zm-84.71002 17.27831l1.27617-.45198 5.68939 2.90245 2.3698 2.5532-3.77931 1.24722-5.69958-1.70357-1.5622-1.35247.22799-2.29641 1.47774-.89844z"/>
  <path class="path" d="M161.66285 4.88156l9.35563.23215 11.59723.61059 11.13204.31308 19.26306.77535 17.42035.506 2.21565-.10393 13.32956.32673 6.58729.33562 16.16307.0743 11.97024.19876 26.15684.13144 20.82833-.11224.06504 36.43124-.08674 11.52817.00866 60.81279.25433 36.2271-.12514 52.76857-.27518 22.73798-.03183 17.83321-.30236 30.47351.35627 21.92544 38.48205 33.88387 9.02675 8.01855 21.37351 18.67728 25.08006 22.16901 4.45183 3.7985 36.03504 31.84787 29.39705 25.77779 12.89565 11.59291 16.78247 14.60134 9.86078 8.82715 10.41832 9.09587 60.72931 53.52157 9.09792 8.07111 50.97379 44.87051 6.71673 5.79919 13.85357 12.29892 37.87085 33.24556 8.47203 7.52661 25.87656 22.67923.56909 5.53653-.2297 5.75948.59098 1.848 3.66258 2.77401 1.49144 3.93727 1.61421 2.5732 3.04558 2.75279 3.72522 2.09489.63188 2.07886 3.73718 7.63036-.33663 1.83949 2.08645 2.02487 2.17949 3.75062.34602 2.16032-.40305 4.82341 1.10249 1.00106 2.46502-.5848 3.47474 2.18595 1.26392 2.01034 1.82513.27942 3.27061 3.24315 4.04264 1.36666 1.76742 2.94736 1.60548 1.32287.53235 3.82687-2.47971 1.50151-4.48031 4.92754-.2221 1.45632-1.8857 1.38754-2.64497.48109-2.8005 3.4501-1.87426.3358-1.39364 1.62643-3.90954 1.29468-1.35468 2.048.22008 4.80547-1.80538 4.10222-2.99564 3.56122-1.74809.70039-.77618 2.91539 1.87131 1.34672-.2615 2.45961 1.18836 1.67239-2.03329 2.05412.30979 3.1969 1.95617 4.45451-.23596 3.28808 1.36022 1.38342.13118 2.15351-2.71121 2.27352.44266 5.05428-.71178 3.08826 1.51595 3.71664-2.66519 2.13558-.08361 1.46888-2.38385 1.81583-2.30723 4.29445-.38945 2.78124-2.24983 1.59331-2.42653-.33978-2.73061 2.01306 2.13706 3.53302-.02258 2.34365-2.27435 3.48312.72455 1.35276 3.85491 1.5221-.87224 2.46743 1.32252 1.84189-.0061 6.07074-2.02088 6.47038 1.61061 1.20949 1.73493 4.37049 2.50815-.85063.99606 1.32499 2.25552.419 2.33226-1.22148 4.23806.39992 1.21427 1.18839 1.56977 4.48094 1.90428 1.20466-.95787 2.10023 1.46958 2.06041.01408 6.59334-3.21006 2.97463-1.61319 2.54085.58388 3.27279-3.03391.90621-1.33797 1.49351-2.95787.81871-5.81414-.58594-1.11792-.70083-1.30558 2.67049-196.48737 26.35219-1.47048-8.95241-1.77125-3.20084-3.10725-2.63874-3.9875 2.00567-1.1018-5.45982.33438-2.6153-.83663-4.83862-1.68236-1.80174 2.25236-5.11243-.87889-5.4874-1.88442-7.80387-1.09053-2.12962-3.09424-8.3627-2.91555-4.43416-7.02679-9.50768-5.05665-6.21884-3.49842-2.95522-3.96988-1.94733-1.02556-1.88264-3.14464-3.25717-3.21838-1.97583-2.4953.19353-.95758-2.19428-4.87317-5.51727-2.40108-.98153-2.16436-2.01543-3.00105-1.75487-4.10652-1.18878-1.12494-1.38139-4.93358-3.21989-7.30191-7.17009-3.59025-2.19752-3.91341-.87949-.53023 1.35362.57177 3.07761-2.11296.08509-4.12272 1.35339-4.75417-.7942-3.54608-2.26487-4.11273-.43102-1.44437-3.14967 2.71033-2.91583.1178-3.55131-4.22456-9.5692-3.46386-5.51086-2.89321-2.84458-4.03061-1.3087-3.25162.55436-4.73747-.17081-3.04019.96397-3.12761-.22173-3.09025 1.06457-1.72396 1.99124-4.03536-3.1485-8.0851-1.25973-6.70851-3.31823-4.12803-1.4334-3.35649-.14225-4.74393-3.7314-2.24482-.66979-3.3209-6.49177-1.08373-3.83301-1.68888-2.12133-1.77658-.06325-4.63705-4.21672-1.61384.13552-3.01948-3.35913-2.68367-2.02634-6.10685-2.04697-1.81455-1.72807-4.61034-.71734-4.41275.49189-2.97963 2.01803-1.63003-.04368-5.25514-2.0922-6.35544.86511-4.11618-2.43444-2.50412-.1301-4.1438-2.44032-6.45854.01989-4.21538-1.2856-12.88706.58386-3.17491.7934-10.43405 1.01701-.40662-2.64949-2.76683-4.65474-5.58009-3.33204-3.30921.26445-1.83803-2.63414.4554-2.26489 3.11846-8.48956.03468-1.71043-2.8279-4.49992 2.25312-8.4155-.49791-2.33164-1.82308-1.33939-.62815-2.01553-1.87296-.3025 2.52492-9.57813.83902-5.67864-.42563-6.0503-1.20467-2.33472-1.89985-.5272-1.88181-1.77402-2.80241-.72803-4.12125.04517-5.53603-2.84636-3.19905-4.04848.61772-2.90156 1.80228-4.77388.43159-3.2597-.52327-4.13318-1.20778-2.62543-1.8188-1.85004-3.06016.19865-1.79959-1.32751-2.68581-.07779-7.67982-8.64197-1.88153-4.31931-3.16568-4.15081-6.6349-2.14794-2.65772-1.7323-2.28936-3.83921-.03828-3.8093-1.27279-2.98891-4.32729-3.98448-1.93163-3.121-3.82417-3.00182-1.75605-8.25898-1.28425-2.93016-2.23968-1.40278-3.34156-1.10295-1.36955-3.90016-1.99081-2.23981-.81644-2.60681-3.87738-5.05877-2.85386-2.90096-4.85671-3.22451-2.64356-.71366-1.69747-1.63734-1.21684-2.6555-1.76698-1.12635-1.50435-2.82303.18454-2.19471-.94594-1.75276.33028-2.28782-.92507-4.29576-1.98148-5.84349-.16735-3.52737 1.46909-.29186-.44434-3.38754-1.92868-.48154-.98492-1.7963 3.7351-4.95822 2.57898 2.51088 1.45743.48574 2.31819-2.4329 1.39286-2.61156 1.50776-5.50617.17723-3.50356 1.45044-5.19718-2.92337-7.38048-2.58995-5.12418-3.36026-3.70202-1.81404-.93101-3.36315 2.26348-3.05356-1.07508-1.1769 1.27744-3.05359.21385-3.05495-.81385-3.75748-2.50491-3.89159-3.30716-3.46392-4.50457-2.43649-4.17041-1.61266-1.46194-2.39406-.15581-.01462-1.80412-2.17631-3.63954-2.8843-2.30619-.90486-5.14947.56605-1.66972 1.06739-9.05153-1.64994-3.28121-1.46616-4.2571-.53604-4.34999-1.51456-1.9839-1.67049.75335-1.69055-2.86422.14023-6.73387 1.2395-.8422.67539-4.29891-.09924-4.1249-1.11779-9.20758 3.95265-2.21246 4.34192-.54829 1.64806 2.05594.96745 7.13653-1.77537.93158 1.34255 4.44054-.9661 2.36201 1.55853 1.15271-1.05751 1.97789 1.37897 1.30727 3.27139.23987.87069 1.51664 3.32035.33463 7.1055 6.8475 4.40917-.23449-.00441-2.06801-2.56727-5.84805-.33815-5.09807-.72033-2.65709-3.0801-2.9717-3.23917-2.42509-1.22862-4.18426-5.07676-1.98627-.16226-2.52863 2.33393-1.91552-.31645-6.10053-1.02275-1.29769-5.00746-.53832-1.81443-2.68687 1.11073-1.79447 2.52452-2.09087-.02802-2.89607 2.19463.46816 3.02373-.62581 2.98447-3.20517-.70704-2.91222-3.08225-4.05176-3.88959-2.64146-2.82861-.96212-.51067 1.38697-2.32421 1.81772-3.97534.75559.48302 3.54449-1.21025 5.05904 2.63994 1.6282-2.20321 3.69694 1.22138 6.07747 2.55545 2.16629-3.48156 1.56404.42875 3.06848-2.24515.95066-3.30965-1.45918-.91833-1.54158-7.14715-5.32028-1.96119-.24305-1.60407 1.18245-1.86029-1.10406-.6766-2.08082-3.47911-2.58182-1.01235-2.49218-1.77831-2.0051-4.56548-2.91252-4.388-.7801-2.53528 1.05478-.81474 1.52764-2.2338.01058 4.20893-10.51767 1.02724-3.96436-1.30748-4.74421-1.726-3.04519 1.81406-.88555-.57333-2.45125-1.9731-2.89302-2.58826-1.69331-1.93616 1.04597-.77546-2.00851.60642-3.60661-1.22167-3.02116-3.10196-5.92597-5.44502-4.45069-3.5579-1.74825-2.74202-2.93213-3.31382-2.57806-1.2384-3.08396-2.16756-2.52264-4.46791-7.72603-1.41875-1.72996-3.96536-2.57395-1.92394-3.45584-3.27808-2.66099-1.36037-1.98777-3.09973-2.32705-.84142-2.66384-3.68004-4.10156-1.10487-.45264-.1289-3.82022 2.60998-4.5398.42157-5.13403-1.81879-6.68053-1.4101-3.90244-2.2871-4.68059-.76835-5.11112-1.14419-1.45046-.19266-4.44171-1.1445-4.35801 1.17657-7.52036 4.02823-10.17107-1.3689-5.08606.44711-1.62855-.53088-6.11097-1.05958-2.62797-1.54718-1.2637-.5236-2.87348.04218-4.20088-.74665-3.56943-4.05306-3.17858-1.48261-4.59834-1.80597-1.30752-1.70666-3.96837-3.95352-5.11176-3.21361-1.73733.09764-3.52818-2.06202-3.74968-5.63582-2.85008-1.87782-3.03467-3.13127-2.41246-4.45596-4.31786-3.00185-3.47757 1.39325-5.15203-1.55877-7.68171L2.2 154.63789 1 151.56611l2.05664-4.93372-.08618-1.4749 4.75447-10.61489 3.25175-5.99344 3.24485-5.24998 7.2401-13.36806 1.77402-4.74676 1.65853-6.09896.60301-3.75321-.88957-2.01345-2.04664-.57963-.31563-4.42938.33499-4.25967 1.08752-.114 3.05538-8.12079 3.14419-13.95982.9423-6.24447-.09019-2.98225-.95079-4.01822.11149-3.54159-1.30514-2.13675.15133-3.22649-2.28803-5.41942-.35698-5.06039-2.31068-3.6413-1.03363.89348-4.51806-4.75676.837-.86361 2.08086-5.16018.989-4.00826.59188-5.09423-.34742-5.59393 15.232.88535 19.78297.72421 5.14834.38222 2.36804-.36481 13.75634.33796 6.30981.4717 11.26632-.22552 3.37426-.25566 7.27709.839 10.96172.38688 18.79121.33019 18.60336.04064 6.42102.32832z"/>
</svg>
