<svg xmlns="http://www.w3.org/2000/svg" width="800" height="1048" version="1.2" baseProfile="tiny" viewBox="0 10 800 1048" stroke-linecap="round" stroke-linejoin="round" fill="none" stroke="black" stroke-width="10">
  <path class="path" d="M284.02984 1037.57661l-103.44366-4.06076-137.84362-4.66766-4.07458-22.43206 1.21197-7.28771 2.52121-5.29263 1.63316-42.83074 1.72849-38.26798 1.45523-24.14426 2.49585-53.52983.75755-11.75377 3.78507-106.75011 1.42468-3.65122-1.85364-7.60183-2.86801-4.4701-7.596-5.80923-2.51277.27806.47134-9.62406-2.77938-8.76679-4.49277-1.24225-11.93972.79694-5.1251 4.94241-2.22263 6.31428.18621 7.04779-4.5811 4.40957-8.80977-6.47923 3.17629-15.7237-2.73948-4.47922 5.92455-13.96223 1.84162-9.4632 9.27548-12.81189.3371-7.58735 5.66632-11.02597-1.95928-5.62736-5.40214-5.1986-4.65129-9.43786 1.3082-4.07615 4.73254-5.1317-2.62192-5.59661 2.19256-5.95821-2.63329-6.75484-3.53374-4.88367-3.54767-12.01522.66214-13.77037-1.61808-5.09194 2.0569-12.60147-1.31821-6.20903L1 507.97278l2.6102-13.75805 5.32005-13.27296-1.19239-8.0836 3.91523-5.178 3.52455-17.27879 8.37582-7.7137 3.58172-8.70261 7.62324-5.34832 3.73795-12.12156-3.65423-14.37521.16252-9.54305-2.96361-9.26058.36783-6.17176 5.39428-6.44738 5.60552-15.90394.74117-4.88962-1.80934-5.68867.15159-8.79082-1.86206-9.50833-3.99515-5.3683-6.17197-15.40135-3.94164-2.44988-4.96334-7.08042-2.07465-5.57701 1.47451-4.10453-3.63358-7.09727.95191-7.6675 4.15908-12.92724 2.18-12.62351.17632-16.62482 3.25283-5.37975 2.15327-7.06755 4.03421-6.27854-.58749-6.35515-8.52538-8.84536-4.38757-7.48929.48993-4.81022 3.09402-3.8312 3.82864-15.11285 4.34234-4.01827.78579-3.79108.1013-16.7404-4.42877-8.64913 3.36815-9.37791 73.05352-1.22022 33.49109.7775 34.76993-.85152 48.52503.63686 24.10876.92983 9.64632 1.98546 21.2691-.22196 37.62408 1.26076 10.94085.69944 42.48341-1.08583 16.31968.161 44.26526-1.36609 9.14568.16335 41.90029-1.80213 21.4598-.19701 53.78911-1.38067 10.77214-.24349-6.47176 5.17227-5.77453-2.82778-8.23129 5.70754-.18146 3.96146 6.64342 10.16286.05442 12.59341 6.1313 6.49507-11.37487 16.66019-3.2044 1.46625-3.02435 6.97906 1.35807 4.40585-6.41962 9.77653 1.06409 7.49614-13.01252 15.75323-2.01398 4.79272 7.15571 17.21964 1.94555 6.7912 3.24399 3.56204-.95065 6.16534 5.43746 2.31011 1.65608 6.78576 3.01553 3.56465-1.33415 4.26746.99946 9.42103 4.94341 1.94969-6.27876 9.23807-9.04676.05376-2.22888 4.14518 7.27149 7.5727-3.88083 8.71819.92199 4.57775-4.39885 6.76609-9.53768 1.13107-3.7168 3.54516-4.42656 14.01043-5.16768 2.54932-1.65497 4.28705-6.32286 4.64153-7.9944.8434-1.80391 3.1007-6.52176-1.63193-7.35726 2.60026-6.74134 7.40167.62865 9.39333-11.47848 7.14756-4.95354 1.60577-9.34708-4.15213-4.33598.41752-3.32952 3.61289-14.94449.13026-2.04553 3.11102-6.20912 3.17016-6.65272.67434-1.06832 9.03396-6.25772 4.68006-2.52567 6.12949 5.79189 12.98417-1.49107 8.66969-3.66654 10.87927 3.8342 8.74226 3.75584 4.8491-.50649 7.449 2.40004 2.2399-5.34912 4.69759.0268 7.53371 2.73337 1.36809 2.69809 7.5199-4.17789 3.90741-4.12627 7.0412-4.21815 2.83752.5652 3.99454-8.56644 8.83759.46009 3.93471-3.80468 3.36632 1.52922 3.81396-.82266 6.20007 5.36347.51362-2.35454 7.06143-3.87396 1.5039-.86367 11.1711-8.74541 6.95064-2.26233 5.37459-4.14395 3.47957 1.78331 4.20773-4.47746 1.54608-1.4227 3.695 1.68895 8.84548-1.82569 5.16688 1.10421 6.58845-5.54675 7.47287-.17895 5.94377-3.39657 1.91733-4.68274 7.31565-11.14768 5.70163-9.16798 12.61155-.80948 14.49802-2.38784 4.16283-.34327 6.00781-3.52804 1.76637-2.11923 8.9203.69952 6.07009-5.09554 4.67224-6.74565 3.33924-2.8008 6.79869.71107 8.64401-4.02196 5.40583-1.25875 5.59622 5.15911 8.02196-.23403 5.32976-3.17103 6.01875.60821 5.54894-1.47866 5.08329-2.35638 18.67378-3.54559 6.17483.76521 5.52362 6.56287 3.09982-5.66633 9.34451 4.36066 7.47864-3.60537 12.06323-4.01117 7.79582-3.98808 1.98999-1.08299 5.70657 1.54061 4.33051-1.99081 5.76131.81899 6.52875-3.67577 4.11458 1.91554 4.11051-2.5775 4.04921.29778 6.79471-1.56227 3.44475 7.01888 10.77252-2.95029 7.5389 2.30985 5.6943-2.93306 6.11908-6.50034 7.49597 2.08966 4.79691-.80173 4.86347 1.75104 4.50414 3.64381 2.68939-4.49699 4.20307-.48926 6.87983-3.58394 4.35209-13.10851 3.55575-4.74452 5.3166 2.33042 4.00383.69804 8.57258-2.12914 8.23153-6.29057 5.19712-1.30763 12.79707 2.55868 4.4071 1.69154 13.43565 7.19812 7.14515 2.79888 4.29934-1.2532 6.44776 6.48282-3.46193 4.47909 5.91268.84712 4.72081 4.29663 7.63421z"/>
  <path class="path" d="M555.10471 119.75607l3.07882-11.42332-1.93511-5.17698.57411-5.77849 4.09671-5.82467 2.65958-.2914 6.17052-8.22475.98716-3.55793 5.26008-6.60433-3.03179-5.03447 2.9078-4.41684.53739-5.06331 5.20133-13.0028 2.186-2.19975-1.60894-4.70565-3.49148-1.01614-1.43219-5.87992 3.73287-3.57624 6.77031 2.5574 1.77728-4.03567 5.54717-4.99364-1.85743-3.68293 7.54718-2.768 1.27721-2.78538 6.38137-3.00707 2.1778-3.77006 4.68737-2.42356 5.05408 4.41412 1.13414 5.52579 5.01166 3.34205 5.05663 7.60884L638.60816 22l7.00183 5.06239 4.39081-3.6572 4.20536 3.1046 3.99689-.77088 3.85877-7.32926 2.43967-8.9767 3.54588-7.00841 3.77364-1.42376 2.50934 23.35875 6.79349 96.88471 5.22714 63.99353 2.67462 35.79984 2.57181 40.09801 1.95658 38.96766 2.29569 33.79272 3.97544 68.82439 5.59449 104.40602 3.93734 80.83108.59192 18.74526 1.49715 15.78608 1.23901 20.8268 2.37072 30.36778 1.27273 21.94786 6.51147 7.58575-3.52395 6.38913 2.83003 6.5401-1.3532 7.81838-2.93008 5.32412 2.80398 7.80677-1.76171 6.49837 1.76671 4.8314-7.31083 9.77496 1.00035 15.26484 2.37946 3.50566 2.85346 9.36333 3.19365 3.58232 5.65391-1.17771 6.17487 6.73168 4.55806 8.53522-1.71914 2.1098 6.19493 4.20884 1.48363 4.09913 5.46147 2.84879 1.12088 3.09075 4.79438 1.11608 1.44353 4.53609 6.13121 1.88918 2.50642 5.29974-2.03712 4.0316-1.61082 16.07073-2.79667 11.15665 2.21002 7.89102 12.79894 10.24868 4.71875 2.8201 3.51645 5.37758 5.483 2.49036 8.49764-.78172L799 898.65224l-2.85519 1.491.14219 5.57945-4.25031 5.89344-1.93617 6.21114-2.40785 1.72335-1.67803 6.58284-3.3392 2.07644-2.22591 8.96781-6.95108 9.97242-1.06892 7.6216-3.57265 5.69823-1.66957 13.89818-9.13453 4.72983-11.21199-8.46678-4.92561-1.47684-8.23626.93286-10.39494 6.44295-18.98055 4.30567-3.81579 4.19354-5.54167 17.12482-20.22825-5.71377-9.67247 5.2438-5.92959 7.30536 1.59998 21.25031-12.47689-3.45378-6.34771 1.73795-6.51129 6.78657-7.59606 11.68859-17.03251-.22887-116.33742-2.3479-69.55647-1.88187-42.25194-1.51549-47.64745-1.43384-50.92806-2.01464-4.29663-7.63421-.84712-4.72081-4.47909-5.91268-6.48282 3.46193 1.2532-6.44776-2.79888-4.29934-7.19812-7.14515-1.69154-13.43565-2.55868-4.4071 1.30763-12.79707 6.29057-5.19712 2.12914-8.23153-.69804-8.57258-2.33042-4.00383 4.74452-5.3166 13.10851-3.55575 3.58394-4.35209.48926-6.87983 4.49699-4.20307-3.64381-2.68939-1.75104-4.50414.80173-4.86347-2.08966-4.79691 6.50034-7.49597 2.93306-6.11908-2.30985-5.6943 2.95029-7.5389-7.01888-10.77252 1.56227-3.44475-.29778-6.79471 2.5775-4.04921-1.91554-4.11051 3.67577-4.11458-.81899-6.52875 1.99081-5.76131-1.54061-4.33051 1.08299-5.70657 3.98808-1.98999 4.01117-7.79582 3.60537-12.06323-4.36066-7.47864 5.66633-9.34451-6.56287-3.09982-.76521-5.52362 3.54559-6.17483 2.35638-18.67378 1.47866-5.08329-.60821-5.54894 3.17103-6.01875.23403-5.32976-5.15911-8.02196 1.25875-5.59622 4.02196-5.40583-.71107-8.64401 2.8008-6.79869 6.74565-3.33924 5.09554-4.67224-.69952-6.07009 2.11923-8.9203 3.52804-1.76637.34327-6.00781 2.38784-4.16283.80948-14.49802 9.16798-12.61155 11.14768-5.70163 4.68274-7.31565 3.39657-1.91733.17895-5.94377 5.54675-7.47287-1.10421-6.58845 1.82569-5.16688-1.68895-8.84548 1.4227-3.695 4.47746-1.54608-1.78331-4.20773 4.14395-3.47957 2.26233-5.37459 8.74541-6.95064.86367-11.1711 3.87396-1.5039 2.35454-7.06143-5.36347-.51362.82266-6.20007-1.52922-3.81396 3.80468-3.36632-.46009-3.93471 8.56644-8.83759-.5652-3.99454 4.21815-2.83752 4.12627-7.0412 4.17789-3.90741-2.69809-7.5199-2.73337-1.36809-.0268-7.53371 5.34912-4.69759-2.40004-2.2399.50649-7.449-3.75584-4.8491-3.8342-8.74226 3.66654-10.87927 1.49107-8.66969-5.79189-12.98417 2.52567-6.12949 6.25772-4.68006 1.06832-9.03396 6.65272-.67434 6.20912-3.17016 2.04553-3.11102 14.94449-.13026 3.32952-3.61289 4.33598-.41752 9.34708 4.15213 4.95354-1.60577 11.47848-7.14756-.62865-9.39333 6.74134-7.40167 7.35726-2.60026 6.52176 1.63193 1.80391-3.1007 7.9944-.8434 6.32286-4.64153 1.65497-4.28705 5.16768-2.54932 4.42656-14.01043 3.7168-3.54516 9.53768-1.13107 4.39885-6.76609-.92199-4.57775 3.88083-8.71819-7.27149-7.5727 2.22888-4.14518 9.04676-.05376 6.27876-9.23807-4.94341-1.94969-.99946-9.42103 1.33415-4.26746-3.01553-3.56465-1.65608-6.78576-5.43746-2.31011.95065-6.16534-3.24399-3.56204-1.94555-6.7912-7.15571-17.21964 2.01398-4.79272 13.01252-15.75323-1.06409-7.49614 6.41962-9.77653-1.35807-4.40585 3.02435-6.97906 3.2044-1.46625 11.37487-16.66019-6.1313-6.49507-.05442-12.59341-6.64342-10.16286.18146-3.96146 8.23129-5.70754 5.77453 2.82778 6.47176-5.17227-10.77214.24349z"/>
</svg>
