<svg xmlns="http://www.w3.org/2000/svg" width="800" height="350" version="1.2" baseProfile="tiny" viewBox="250 0 400 400" stroke-linecap="round" stroke-linejoin="round" fill="none" stroke="black" stroke-width="6">
  <path d="M799 163.31623l-4.7473 8.31888-4.4621 10.41052-2.30268 1.73002-2.51211-1.71953-2.66938.06582-2.16568 1.49689-3.10605 3.86389-2.40839 4.02424-5.66035 13.97378-.33706 2.74021-2.05003 6.59169-.03354 2.41442 1.79399 1.81411-3.47132 5.79727-2.84893 6.06195.49818 2.01072-.902 3.02148-4.26692 6.92326-1.24449 4.53079-2.65378 3.6522-3.0822 1.23045.81614 2.35291-.68992 2.93021.9259 3.1369-.80151 3.33168-2.67761 3.27899-6.9809 6.97673-1.87074-2.23338-4.19103 1.9426-.90055-4.56725-3.53134-5.57225.12313-3.11901-1.55615-3.00993.75625-8.88399 2.40113-4.43998.22433-7.79858 1.8079-4.04277-.2956-1.6785 1.93093-6.34697-.21481-3.46774 2.70833-7.09469 3.66032-5.55537.70526-4.17281 1.98402-1.25163 1.07633-3.45109 1.94886-2.54833-1.55601-3.41129 2.26306-1.6108 4.71615-.44761 2.3935-2.47889.60029-2.52034 1.74135-1.74909.09181-2.91768-2.13808-1.609-4.52643-.20628 4.12557-3.99069 1.72768.60861 4.10822-4.49711 2.10336-3.34814 35.623-5.4905zM628.14088 84.66722l.03527 2.73095-5.8381 2.73088-2.40059 2.79366-.24318 2.85677-3.54803 3.13072-2.49864.89395-1.38983-2.41227-2.26183-.07503-.45537 5.7477-3.20907 7.84482-2.40994 3.7743-1.2813 5.38374 1.51534 6.04267-.57319 1.6873 2.01729 1.58854 1.62036 3.56601 3.71484.84173 7.17926-1.88841 2.21695-2.66014 4.98167-.17395 3.74974-3.92938 3.03856 3.00604-.37169 3.9125-1.18812 3.60378 3.18959 3.90201 3.38761 2.4684.12279 5.03384 4.86861 1.88423 3.40844 2.85721 3.44149.93853 4.6899-.81616 2.64718.23283 3.70585 3.32745 3.3782-2.34271 1.88109.99474 4.78543-.26094 1.35933 4.53092 6.23972 4.61886 1.97838 5.04002 4.47384 1.40116.69564 1.75563 4.46018 3.62299 6.87311 2.08219 7.45135 4.0146 2.83993 2.53807-1.14027 6.70486-1.31601 1.90794-3.87193.73463-.12969 10.93478 1.09868 3.68473-2.0468 1.49815-.60362 3.72297 3.81005 1.02303-1.50943 1.73986-4.96105 1.53893-10.58759-6.22789-1.61983.002-1.84947 2.89628-2.56382-2.4415-.48466-4.83767-2.01056-2.71468-2.39391-4.80162-6.41211-3.04838-2.8121-3.40755-2.00113.41447-1.98098-1.60342-2.52424-4.5785-3.45889.85007 4.97593 8.27449 1.81393 1.46427 2.42115.00779 1.3059 3.41538 5.43043 1.17512 2.21863 3.20006 2.44396 8.29546 3.06942 3.45666 1.47962.61079 8.63703-.45954 2.4495 3.59984 10.51212 2.02749-5.51802 5.23732 3.02398 2.78569 2.11477-.37792 1.70447-2.03464 2.3163 3.81002 1.33503 4.00299.92542 7.14686-3.24378 8.15997-2.50412-1.13183-2.87357-4.0171-4.77697-2.33791-2.93635.09814-2.49421 2.2928 3.81505 3.85672 2.58443 5.56562 1.83874 1.73314-5.17104.91969-1.09129 1.30029-6.06093.65558-.91911 1.88462 3.08518 2.01855 7.32198-1.3282.58531 3.73973-.8513 3.97624 1.75137.48285 3.57435-1.36831 1.30837 2.86331 3.6787 1.66825 2.1736 4.92227-2.79246 9.97729-3.514-1.5266-5.16073 4.08333-1.3865 2.36302-1.65363-.78831-2.32012-3.27507-1.28802-3.44821-8.78742-5.4545-6.1585-4.97152-.46351-2.69372 1.61959-2.17544-2.57932-5.46716-1.94704-1.62356-3.73015-.11754-3.92669 1.19392-2.46294 2.70503-2.21951-2.03413-1.48253 2.41098 4.80738 4.47326 3.07565.20629 2.63172-6.11572 2.16052 2.90059-.67478 1.81857 1.56017 5.7601-.88835 6.53463 2.18985 2.16956 5.68121.71208 2.33245 2.88919 3.69337 2.2532 3.66584 3.61851.61525 6.64824 2.77611 1.3537.61789-2.29454 5.70848.24581.06723-2.81782 5.44127.38508-.024-4.87003 2.78797-1.1298 2.83809.32882 3.2181 2.1916 4.33689 1.47325 4.8292.82358 4.25134 1.53497 3.51736-1.09634 2.28264-1.86749 3.58196 1.04097 5.17297 18.92031 2.96632 8.09627 3.22161 7.15866 2.65414 9.40253-42.64458 1.5988-47.21239 1.49635-10.4088.12071.01296.98299-27.64719.63919-52.07787 1.02877-36.68579.81761-10.72646.0852-25.29466.70464-14.66969.0327-56.09417.43353-24.95787.07999-36.02536-.32695-22.47142-.09997-16.55243-.28456-39.14833-2.60239-12.70505.2053-44.89273-2.65324-6.43569-.08658-13.96147-.98887-7.61987-.94192-7.31799-.2999 2.99329-2.7569-8.60116-.25886-17.72964-.9026-1.16718 2.58255-22.91607-.6805-3.48494-.23998-24.47505-.59886-1.96539-.22267-18.41262-.36244-19.88421-.67894-35.63505-1.43009-1.43108-.56942-9.42099-.29515-23.65293-1.10464L1 332.84765l5.98986-3.67359 3.5914-.76788 4.45265-2.56189 3.65176-.44754 6.68429.6075 3.68381-2.12652 7.65628-2.62807 10.86171-2.89806 5.56513-.20699.62671-4.53835 3.31457-3.76786-.24602-1.7682 2.58701-1.30158.3102-1.61587 9.75499.00402 8.7752-3.40521.27375-2.23255 1.73343-1.98994.49108-3.21733-1.15021-2.62136 4.54675-3.39308 3.86878-.35041 5.89473-5.69761.27163-7.38225 6.8111-3.53559 1.73074-.22098 4.00476-3.26049 9.04093-4.952 4.77124-1.84957 9.38677-2.45733 3.40663-3.19781 18.53999-15.17884 15.14203-12.70937 2.47266 3.42851-5.33623 3.75022.83432 2.6148 3.52634 1.1858 1.50147 3.65842-.51173 4.08233.71729 2.40427 4.64652 3.89854 2.19262 2.70067.02917 2.24167 3.1872 1.06517 1.56726-.73333 3.90165 1.30813 2.09028 4.49836 4.83944 3.1038.7738 1.39849 11.15926-.35911 1.57125-1.63929 3.40883-1.32686.58157-2.36421 2.17933.22013 3.06647-2.24499 3.00118-.25059 1.80649-4.40642 2.29962-.90053 1.2095-2.24042 3.88941 4.63315 8.85132 7.82294 5.56261-3.22356 5.18809-1.7622 12.64089-2.61232 2.98854.80811 4.51846-2.20156 4.89058-3.71598-3.13213-4.44242 2.55745-5.08185 1.93773.34848 4.89033 3.60386 1.29766 2.6567 6.17093-2.55975 10.0011-5.99643 4.58843-3.19858 3.49172-.55494 2.06639 2.49405-.20708 2.69043 1.80564 1.45838 4.75291-3.14811 11.953-6.82146-1.15051-4.51784-1.50117-2.15943 6.59525-3.64569 3.60725-3.80214-4.36249-2.21268-2.6565-5.44528 4.19135-4.48144-.48162-3.12155 2.55704-2.6176 1.14342-3.72827 3.05528-3.29609 2.30431-4.42124 1.90907-.87625 6.37837-7.0346 6.79126-5.96148 4.04346-8.40011.52277-1.98013 2.64146-3.1638-1.71985-2.90906 1.48482-.96487 2.89211-6.3121 4.88322-5.55551 2.38111-.97375 3.13751-2.96036-2.0966-3.77511 3.46875-3.60934.81541-2.48917 1.89638.30751 3.51374-7.32446 1.58536-1.86175-.85885-5.19148 1.74434-4.20777 1.04214-4.61667 1.88835-4.98352 10.43673 4.83092 1.43312 2.01882 4.17632 9.1056 15.33009 5.3672 3.03668-1.46675 2.34381-3.77873 4.07279-4.40064.42892-3.7543 3.923-6.97106.74151-3.33996 2.36-5.20892 3.4184-.54871.78494-3.20935-.78868-1.87248 1.85161-5.37526 4.17843-5.31633.69848-3.06712 2.34921-3.835 11.63189 10.27254 4.40588-8.10492 3.02307-6.45197 2.66732-1.85045 1.84176-3.19208 2.12945 2.64855 3.28639-2.46093 3.08929-5.11365 2.40247-1.74011 1.76003 2.12045 4.67239-6.39577-1.9988-1.63401 5.06172-5.96752 3.47934-3.36802 1.70929-.4357 2.95444-4.71023 2.15748-1.7742-3.26744-3.59596 3.52038-5.51419-1.8288-1.56369 5.38576-7.22633 1.74784-4.26468-2.43731-.65845 2.13331-3.53252-1.51943-2.79948 1.1397-1.8059-.09065-4.55956 7.82963 6.03869 9.74107 8.28953 11.68824 9.20478 19.14589 15.3624 2.03784-5.01318.97966-4.28267 1.98982-3.20272 2.09359-6.95584 2.54335-3.15193 3.96912-.44179 5.56775 2.43873 4.53613-.49751 2.25034 4.60743 5.2483 2.18598 2.74421 2.62045-2.50683 4.73008-1.76112.46764-1.95015 4.29615 1.17438 3.25869 2.7497 1.04376 2.22715 3.87761 8.12813 1.59283 3.21028-.27568 4.40632 1.85383 4.55894 3.02578-.38219 4.07186 2.66042 1.66896 6.95099.66911 4.15461 5.98691 3.38524 1.5389 3.45081 5.69333-.63742 2.19081.03539 10.77263z"/>
</svg>
